<?xml version="1.0" encoding="UTF-8"?>
<svg version="1.1" xmlns="http://www.w3.org/2000/svg" width="70" height="70">
<path d="M0 0 C3.89300512 1.09490769 5.92537414 2.87494994 8.6875 5.6875 C11.16478476 7.98005416 12.34120685 8.94361257 15.73828125 9.234375 C18.21742699 8.9678756 20.57880033 8.59041549 23 8 C23.08636719 8.66386719 23.17273437 9.32773438 23.26171875 10.01171875 C24.20038748 15.91069194 25.1373586 19.15512075 30 23 C30.9075 23.763125 31.815 24.52625 32.75 25.3125 C34.66458333 27.1 34.66458333 27.1 36 27 C36.4375 29.625 36.4375 29.625 36 33 C34.4268801 34.43923735 32.83402139 35.86339596 31.14453125 37.1640625 C26.09957928 41.48305599 21.67707664 47.09706019 18.359375 52.83984375 C17.68648437 53.90912109 17.68648437 53.90912109 17 55 C16.34 55 15.68 55 15 55 C14.7525 55.5775 14.505 56.155 14.25 56.75 C12.77179527 59.41076851 11.41685961 61.13556544 9 63 C5.12236659 62.64631868 2.64433226 61.35039009 -0.5 59.125 C-1.27859375 58.58617187 -2.0571875 58.04734375 -2.859375 57.4921875 C-3.56578125 56.99976563 -4.2721875 56.50734375 -5 56 C-7.53753304 54.38520625 -9.6453609 53.11525771 -12.5 52.1875 C-15.33942936 50.83877105 -16.64105393 49.12374072 -18.53125 46.6640625 C-21.2445402 43.58996244 -24.65524491 41.3404986 -28 39 C-27.62398894 35.70990326 -27.21436601 34.23385383 -24.9375 31.75 C-22.48631509 28.27089884 -22.69991904 26.12292354 -22.95703125 21.98828125 C-23 20 -23 20 -22 18 C-18.63471927 17.46582846 -15.40372484 17 -12 17 C-11.72929687 16.4328125 -11.45859375 15.865625 -11.1796875 15.28125 C-8.28185078 9.67748627 -4.74644896 4.19878177 0 0 Z " fill="#E6F3F7" transform="translate(31,4)"/>
<path d="M0 0 C4.78209804 1.44912062 8.70482037 4.2679954 12 8 C12 8.99 12 9.98 12 11 C15.3 10.67 18.6 10.34 22 10 C22 11.65 22 13.3 22 15 C21.34 15 20.68 15 20 15 C20.33 13.68 20.66 12.36 21 11 C20.34 11 19.68 11 19 11 C19.52268466 13.76276177 20.10869587 16.3260876 21 19 C20.34 19 19.68 19 19 19 C19 19.99 19 20.98 19 22 C18.34 22 17.68 22 17 22 C17.020625 22.804375 17.04125 23.60875 17.0625 24.4375 C17 27 17 27 16 28 C16.99 28.33 17.98 28.66 19 29 C19.8125 30.8125 19.8125 30.8125 20 33 C19.0625 35.25 19.0625 35.25 18 37 C16.68 36.67 15.36 36.34 14 36 C14 35.34 14 34.68 14 34 C13.34 34 12.68 34 12 34 C11.9175 35.27875 11.835 36.5575 11.75 37.875 C11.48828125 40.0859375 11.48828125 40.0859375 11 42 C8.9375 43.5 8.9375 43.5 7 44 C7.33 42.68 7.66 41.36 8 40 C7.34 40 6.68 40 6 40 C6 38.68 6 37.36 6 36 C5.34 36 4.68 36 4 36 C4.33 34.02 4.66 32.04 5 30 C4.34 30 3.68 30 3 30 C3.33 28.35 3.66 26.7 4 25 C3.34 25 2.68 25 2 25 C2.33 23.35 2.66 21.7 3 20 C1.02 20.33 -0.96 20.66 -3 21 C-3 20.34 -3 19.68 -3 19 C-3.99 19 -4.98 19 -6 19 C-6.33 19.66 -6.66 20.32 -7 21 C-7.66 20.67 -8.32 20.34 -9 20 C-9.12375 20.7425 -9.2475 21.485 -9.375 22.25 C-9.95486701 24.80141485 -10.73708739 26.7267573 -12 29 C-12.66 29 -13.32 29 -14 29 C-14 29.99 -14 30.98 -14 32 C-13.34 32 -12.68 32 -12 32 C-11.67 32.99 -11.34 33.98 -11 35 C-11.78375 34.814375 -12.5675 34.62875 -13.375 34.4375 C-15.97089775 33.74037734 -15.97089775 33.74037734 -18 35 C-18.66 34.67 -19.32 34.34 -20 34 C-19.34 36.64 -18.68 39.28 -18 42 C-21.37462715 41.45276317 -23.08235 40.9451 -26 39 C-25.60610782 36.16397629 -25.27283051 34.35240608 -23.5 32.0625 C-21.59238846 29.43953413 -21.36172857 27.18321138 -21 24 C-19.68 24.33 -18.36 24.66 -17 25 C-17.33 24.34 -17.66 23.68 -18 23 C-19.32 23 -20.64 23 -22 23 C-22 21.35 -22 19.7 -22 18 C-14.25 17 -14.25 17 -12 17 C-11.72929687 16.4328125 -11.45859375 15.865625 -11.1796875 15.28125 C-8.28185078 9.67748627 -4.74644896 4.19878177 0 0 Z " fill="#F2F5FC" transform="translate(31,4)"/>
<path d="M0 0 C0.33 0.66 0.66 1.32 1 2 C1.99 2 2.98 2 4 2 C3.67 3.65 3.34 5.3 3 7 C3.66 7 4.32 7 5 7 C4.67 8.65 4.34 10.3 4 12 C4.66 12 5.32 12 6 12 C5.67 13.98 5.34 15.96 5 18 C5.66 18 6.32 18 7 18 C7 19.32 7 20.64 7 22 C7.66 22 8.32 22 9 22 C8.67 23.32 8.34 24.64 8 26 C8.66 26 9.32 26 10 26 C10 26.99 10 27.98 10 29 C8.68 29 7.36 29 6 29 C6 29.66 6 30.32 6 31 C2.18243176 32.37432457 -1.07255329 31.67975039 -5 31 C-5.33 29.68 -5.66 28.36 -6 27 C-7.65 27.33 -9.3 27.66 -11 28 C-10.67 26.68 -10.34 25.36 -10 24 C-10.99 24.33 -11.98 24.66 -13 25 C-13.66 21.7 -14.32 18.4 -15 15 C-13.68 15.33 -12.36 15.66 -11 16 C-11 15.34 -11 14.68 -11 14 C-11.66 14 -12.32 14 -13 14 C-13 13.01 -13 12.02 -13 11 C-12.34 11 -11.68 11 -11 11 C-10.814375 10.1646875 -10.814375 10.1646875 -10.625 9.3125 C-10.41875 8.549375 -10.2125 7.78625 -10 7 C-9.773125 6.113125 -9.54625 5.22625 -9.3125 4.3125 C-8 2 -8 2 -4.9375 1.125 C-3.968125 1.08375 -2.99875 1.0425 -2 1 C-1.67 1.33 -1.34 1.66 -1 2 C-0.67 1.34 -0.34 0.68 0 0 Z " fill="#F3C2F8" transform="translate(30,22)"/>
<path d="M0 0 C4.98012761 1.50912958 8.24259942 4.55661849 12 8 C11.01 8.33 10.02 8.66 9 9 C9 9.99 9 10.98 9 12 C6.04335481 13.4783226 3.25770263 13.06032783 0 13 C0 12.01 0 11.02 0 10 C-0.99 10.495 -0.99 10.495 -2 11 C-2.65213292 13.02463255 -2.65213292 13.02463255 -3 15 C-3.66 15 -4.32 15 -5 15 C-5 15.66 -5 16.32 -5 17 C-5.99 17 -6.98 17 -8 17 C-8.103125 18.051875 -8.20625 19.10375 -8.3125 20.1875 C-8.97949332 23.88628113 -9.74990008 26.02986811 -12 29 C-12.66 29 -13.32 29 -14 29 C-14 29.99 -14 30.98 -14 32 C-13.34 32 -12.68 32 -12 32 C-11.67 32.99 -11.34 33.98 -11 35 C-11.78375 34.814375 -12.5675 34.62875 -13.375 34.4375 C-15.97089775 33.74037734 -15.97089775 33.74037734 -18 35 C-18.66 34.67 -19.32 34.34 -20 34 C-19.34 36.64 -18.68 39.28 -18 42 C-21.37462715 41.45276317 -23.08235 40.9451 -26 39 C-25.60610782 36.16397629 -25.27283051 34.35240608 -23.5 32.0625 C-21.59238846 29.43953413 -21.36172857 27.18321138 -21 24 C-19.68 24.33 -18.36 24.66 -17 25 C-17.33 24.34 -17.66 23.68 -18 23 C-19.32 23 -20.64 23 -22 23 C-22 21.35 -22 19.7 -22 18 C-14.25 17 -14.25 17 -12 17 C-11.72929687 16.4328125 -11.45859375 15.865625 -11.1796875 15.28125 C-8.28185078 9.67748627 -4.74644896 4.19878177 0 0 Z " fill="#EEF6FA" transform="translate(31,4)"/>
<path d="M0 0 C0.66 0 1.32 0 2 0 C1.67 1.32 1.34 2.64 1 4 C1.66 4 2.32 4 3 4 C2.67 5.65 2.34 7.3 2 9 C2.66 9 3.32 9 4 9 C4 8.34 4 7.68 4 7 C4.99 7 5.98 7 7 7 C7.33 5.68 7.66 4.36 8 3 C9.32 2.67 10.64 2.34 12 2 C12 2.66 12 3.32 12 4 C12.66 4.33 13.32 4.66 14 5 C13.50628906 5.62648438 13.01257813 6.25296875 12.50390625 6.8984375 C11.54291016 8.12433594 11.54291016 8.12433594 10.5625 9.375 C9.92441406 10.18710937 9.28632812 10.99921875 8.62890625 11.8359375 C6.97776453 13.89398106 6.97776453 13.89398106 6 16 C5.34 16 4.68 16 4 16 C3.71125 16.639375 3.4225 17.27875 3.125 17.9375 C2 20 2 20 0 21 C-0.33 19.68 -0.66 18.36 -1 17 C-4.05263664 16.01879536 -5.94736336 16.01879536 -9 17 C-8.505 15.515 -8.505 15.515 -8 14 C-6.02 13.67 -4.04 13.34 -2 13 C-2.19464844 12.43796875 -2.38929687 11.8759375 -2.58984375 11.296875 C-3.09395636 8.47384438 -2.54545539 6.92363865 -1.5625 4.25 C-1.27503906 3.45078125 -0.98757812 2.6515625 -0.69140625 1.828125 C-0.46324219 1.22484375 -0.23507813 0.6215625 0 0 Z " fill="#E5F0F5" transform="translate(42,43)"/>
<path d="M0 0 C3.57467872 -0.19859326 6.04977304 -0.13637125 9 2 C10.6574191 4.92021461 11.07108001 6.46689994 10.625 9.8125 C10.41875 10.534375 10.2125 11.25625 10 12 C10.99 12.33 11.98 12.66 13 13 C13.8125 14.8125 13.8125 14.8125 14 17 C13.0625 19.25 13.0625 19.25 12 21 C10.68 20.67 9.36 20.34 8 20 C8 19.34 8 18.68 8 18 C7.34 18 6.68 18 6 18 C5.67 18.66 5.34 19.32 5 20 C4.72285156 18.80761719 4.44570313 17.61523438 4.16015625 16.38671875 C3.79434477 14.82029523 3.42845529 13.25388993 3.0625 11.6875 C2.88009766 10.90181641 2.69769531 10.11613281 2.50976562 9.30664062 C2.33251953 8.54931641 2.15527344 7.79199219 1.97265625 7.01171875 C1.81031494 6.31522217 1.64797363 5.61872559 1.48071289 4.90112305 C1.06234435 3.2465594 0.53968631 1.61905892 0 0 Z " fill="#F6C5FA" transform="translate(37,20)"/>
<path d="M0 0 C4.98012761 1.50912958 8.24259942 4.55661849 12 8 C11.01 8.33 10.02 8.66 9 9 C9 9.99 9 10.98 9 12 C6.04335481 13.4783226 3.25770263 13.06032783 0 13 C0 12.01 0 11.02 0 10 C-0.928125 10.495 -0.928125 10.495 -1.875 11 C-4 12 -4 12 -6 12 C-6.99 12.33 -7.98 12.66 -9 13 C-7.47987323 7.59510481 -3.72614782 4.01507372 0 0 Z " fill="#E4ECF0" transform="translate(31,4)"/>
<path d="M0 0 C0.598125 0.309375 1.19625 0.61875 1.8125 0.9375 C4.08956772 2.10209704 4.08956772 2.10209704 7 3 C6.67 3.66 6.34 4.32 6 5 C4.68 4.67 3.36 4.34 2 4 C2.0825 4.886875 2.165 5.77375 2.25 6.6875 C1.9440379 10.74149782 0.61452981 11.98932931 -2 15 C-2.77833534 17.18214568 -2.77833534 17.18214568 -3 19 C-1.9790625 19.309375 -1.9790625 19.309375 -0.9375 19.625 C2.92917854 21.43493463 6.06417577 23.89844375 9 27 C9.33 27.99 9.66 28.98 10 30 C11.04671875 30.2990625 12.0934375 30.598125 13.171875 30.90625 C17.39896949 32.11399128 19.81827771 33.78981932 23.25 36.5 C24.26578125 37.2940625 25.2815625 38.088125 26.328125 38.90625 C27.20984375 39.5971875 28.0915625 40.288125 29 41 C29.99 41.66 30.98 42.32 32 43 C28.13627806 42.44220916 25.67669505 41.37329474 22.5 39.125 C21.72140625 38.58617187 20.9428125 38.04734375 20.140625 37.4921875 C19.43421875 36.99976563 18.7278125 36.50734375 18 36 C15.46246696 34.38520625 13.3546391 33.11525771 10.5 32.1875 C7.66057064 30.83877105 6.35894607 29.12374072 4.46875 26.6640625 C1.7554598 23.58996244 -1.65524491 21.3404986 -5 19 C-4.62398894 15.70990326 -4.21436601 14.23385383 -1.9375 11.75 C0.78950533 7.87941179 0.36008371 4.59106726 0 0 Z " fill="#A9B6BF" transform="translate(8,24)"/>
<path d="M0 0 C1.32 0 2.64 0 4 0 C4 4 4 4 3 7 C2.01 7 1.02 7 0 7 C-0.33 7.66 -0.66 8.32 -1 9 C-0.34 9 0.32 9 1 9 C1 9.99 1 10.98 1 12 C0.01 12.33 -0.98 12.66 -2 13 C-2.33 13.99 -2.66 14.98 -3 16 C-3.99 16 -4.98 16 -6 16 C-6 16.66 -6 17.32 -6 18 C-6.66 18 -7.32 18 -8 18 C-7.67 16.35 -7.34 14.7 -7 13 C-7.66 13 -8.32 13 -9 13 C-10.125 6.25 -10.125 6.25 -9 4 C-8.34 4 -7.68 4 -7 4 C-6.67 4.66 -6.34 5.32 -6 6 C-5.01 6 -4.02 6 -3 6 C-2.01 4.02 -1.02 2.04 0 0 Z " fill="#E1B7E9" transform="translate(52,34)"/>
<path d="M0 0 C0.66 3.96 1.32 7.92 2 12 C0.68 12.33 -0.64 12.66 -2 13 C-2.33 13.99 -2.66 14.98 -3 16 C-2.34 16 -1.68 16 -1 16 C-1.875 19.875 -1.875 19.875 -3 21 C-4.66617115 21.04063832 -6.33388095 21.042721 -8 21 C-7.01 17.535 -7.01 17.535 -6 14 C-5.34 14 -4.68 14 -4 14 C-4 13.01 -4 12.02 -4 11 C-3.34 11 -2.68 11 -2 11 C-2.515625 10.4225 -3.03125 9.845 -3.5625 9.25 C-5 7 -5 7 -4.6875 4.75 C-4.460625 4.1725 -4.23375 3.595 -4 3 C-3.34 3 -2.68 3 -2 3 C-2.33 4.32 -2.66 5.64 -3 7 C-2.34 7 -1.68 7 -1 7 C-1 5.35 -1 3.7 -1 2 C-4.3 2.33 -7.6 2.66 -11 3 C-10.67 2.34 -10.34 1.68 -10 1 C-6.56187949 0.23597322 -3.53471921 0 0 0 Z " fill="#C7CFDD" transform="translate(54,12)"/>
<path d="M0 0 C1.38978246 2.77956492 0.61356169 4.12046386 -0.25 7.0625 C-0.50265625 7.96097656 -0.7553125 8.85945313 -1.015625 9.78515625 C-1.34046875 10.51605469 -1.6653125 11.24695313 -2 12 C-2.99 12.33 -3.98 12.66 -5 13 C-5.4125 12.505 -5.825 12.01 -6.25 11.5 C-8.12202338 9.56613908 -8.12202338 9.56613908 -12 10 C-12 8.35 -12 6.7 -12 5 C-4.25 4 -4.25 4 -2 4 C-1.34 2.68 -0.68 1.36 0 0 Z " fill="#D7E9EF" transform="translate(21,17)"/>
<path d="M0 0 C0 0.66 0 1.32 0 2 C0.99 2 1.98 2 3 2 C3.33 3.98 3.66 5.96 4 8 C1.03 7.505 1.03 7.505 -2 7 C-2 5.68 -2 4.36 -2 3 C-2.99 3 -3.98 3 -5 3 C-4.938125 4.3303125 -4.938125 4.3303125 -4.875 5.6875 C-4.99897246 8.97277013 -5.61387904 11.05449295 -7 14 C-8.32 13.34 -9.64 12.68 -11 12 C-11 11.34 -11 10.68 -11 10 C-10.34 10 -9.68 10 -9 10 C-8.87625 9.443125 -8.7525 8.88625 -8.625 8.3125 C-7.92924316 5.7381997 -7.16814704 3.40119114 -6 1 C-3 0 -3 0 0 0 Z " fill="#E7C1EE" transform="translate(28,23)"/>
<path d="M0 0 C0 1.65 0 3.3 0 5 C-0.66 5 -1.32 5 -2 5 C-1.67 3.68 -1.34 2.36 -1 1 C-1.66 1 -2.32 1 -3 1 C-2.47731534 3.76276177 -1.89130413 6.3260876 -1 9 C-1.66 9 -2.32 9 -3 9 C-3 9.99 -3 10.98 -3 12 C-3.99 12.33 -4.98 12.66 -6 13 C-6.33 10.36 -6.66 7.72 -7 5 C-7.66 5 -8.32 5 -9 5 C-9 3.68 -9 2.36 -9 1 C-5.846632 0.29925156 -3.27275026 0 0 0 Z " fill="#E7F9FD" transform="translate(53,14)"/>
<path d="M0 0 C1.2065625 0.0309375 1.2065625 0.0309375 2.4375 0.0625 C2.8125 2.8125 2.8125 2.8125 2.4375 6.0625 C-0.5625 8.4375 -0.5625 8.4375 -3.5625 10.0625 C-3.5625 9.4025 -3.5625 8.7425 -3.5625 8.0625 C-4.8825 7.4025 -6.2025 6.7425 -7.5625 6.0625 C-7.5625 4.7425 -7.5625 3.4225 -7.5625 2.0625 C-6.923125 1.918125 -6.28375 1.77375 -5.625 1.625 C-2.92258807 0.88797856 -2.9576555 0.07213794 0 0 Z " fill="#E5EDED" transform="translate(64.5625,30.9375)"/>
<path d="M0 0 C0.66 0 1.32 0 2 0 C2 0.99 2 1.98 2 3 C3.32 3.33 4.64 3.66 6 4 C5.01 4.495 5.01 4.495 4 5 C3.34786708 7.02463255 3.34786708 7.02463255 3 9 C3.66 9.33 4.32 9.66 5 10 C3.02 10.33 1.04 10.66 -1 11 C-1 10.34 -1 9.68 -1 9 C-1.99 9 -2.98 9 -4 9 C-4.33 9.66 -4.66 10.32 -5 11 C-5.33 9.68 -5.66 8.36 -6 7 C-5.01 7 -4.02 7 -3 7 C-3 6.34 -3 5.68 -3 5 C-2.34 5 -1.68 5 -1 5 C-0.67 3.35 -0.34 1.7 0 0 Z " fill="#F4F6FB" transform="translate(29,14)"/>
<path d="M0 0 C0.99 0.33 1.98 0.66 3 1 C3 1.66 3 2.32 3 3 C3.61875 3.04125 4.2375 3.0825 4.875 3.125 C5.57625 3.41375 6.2775 3.7025 7 4 C8.25 7.0625 8.25 7.0625 9 10 C7.625 11.5 7.625 11.5 6 13 C5.34 13 4.68 13 4 13 C4.33 11.68 4.66 10.36 5 9 C4.01 9.33 3.02 9.66 2 10 C1.34 6.7 0.68 3.4 0 0 Z " fill="#9B8BBB" transform="translate(15,37)"/>
<path d="M0 0 C0.598125 0.309375 1.19625 0.61875 1.8125 0.9375 C4.08956772 2.10209704 4.08956772 2.10209704 7 3 C6.67 3.66 6.34 4.32 6 5 C4.68 4.67 3.36 4.34 2 4 C2.0825 4.886875 2.165 5.77375 2.25 6.6875 C1.94384354 10.74407316 0.70686802 12.05429068 -2 15 C-2.66 15.99 -3.32 16.98 -4 18 C-4.33 17.34 -4.66 16.68 -5 16 C-4.360625 15.113125 -3.72125 14.22625 -3.0625 13.3125 C-0.22766899 8.75958958 0.15088467 5.28096362 0 0 Z " fill="#C1CAD4" transform="translate(8,24)"/>
<path d="M0 0 C1.4370809 -0.05422947 2.87475462 -0.09289723 4.3125 -0.125 C5.11300781 -0.14820313 5.91351563 -0.17140625 6.73828125 -0.1953125 C9 0 9 0 12 2 C10.25 5.875 10.25 5.875 8 7 C7.67 5.68 7.34 4.36 7 3 C3.94736336 2.01879536 2.05263664 2.01879536 -1 3 C-0.67 2.01 -0.34 1.02 0 0 Z " fill="#C8D4D9" transform="translate(34,57)"/>
<path d="M0 0 C0.66 0 1.32 0 2 0 C2 0.66 2 1.32 2 2 C2.99 2 3.98 2 5 2 C5.33 3.98 5.66 5.96 6 8 C3.03 7.505 3.03 7.505 0 7 C0 4.69 0 2.38 0 0 Z " fill="#EE90D2" transform="translate(26,23)"/>
<path d="M0 0 C1.65 0 3.3 0 5 0 C4.01 0.495 4.01 0.495 3 1 C3.26676204 2.98491642 3.26676204 2.98491642 4 5 C4.99 5.33 5.98 5.66 7 6 C0.375 6.25 0.375 6.25 -3 4 C-2.67 3.34 -2.34 2.68 -2 2 C-1.34 2 -0.68 2 0 2 C0 1.34 0 0.68 0 0 Z " fill="#F2F6FC" transform="translate(36,51)"/>
<path d="M0 0 C0.99 0.66 1.98 1.32 3 2 C3 2.66 3 3.32 3 4 C2.34 4 1.68 4 1 4 C1 4.99 1 5.98 1 7 C0.01 7.33 -0.98 7.66 -2 8 C-2.33 5.69 -2.66 3.38 -3 1 C-2.01 0.67 -1.02 0.34 0 0 Z " fill="#D9EEF5" transform="translate(49,19)"/>
<path d="M0 0 C0.33 0.66 0.66 1.32 1 2 C3.02463255 2.65213292 3.02463255 2.65213292 5 3 C4.01 3.495 4.01 3.495 3 4 C2.34786708 6.02463255 2.34786708 6.02463255 2 8 C2.66 8.33 3.32 8.66 4 9 C2.02 9.33 0.04 9.66 -2 10 C-2 9.34 -2 8.68 -2 8 C-2.66 7.67 -3.32 7.34 -4 7 C-2.68 6.34 -1.36 5.68 0 5 C-0.33 4.01 -0.66 3.02 -1 2 C-0.67 1.34 -0.34 0.68 0 0 Z " fill="#F2DFF4" transform="translate(30,15)"/>
<path d="M0 0 C1.32 0 2.64 0 4 0 C4 4 4 4 3 7 C1.68 6.67 0.36 6.34 -1 6 C-1.042721 4.33388095 -1.04063832 2.66617115 -1 1 C-0.67 0.67 -0.34 0.34 0 0 Z " fill="#8B99B1" transform="translate(52,34)"/>
<path d="M0 0 C2.475 0.495 2.475 0.495 5 1 C5 2.65 5 4.3 5 6 C2 6 2 6 0 5 C0 3.35 0 1.7 0 0 Z " fill="#C1D5E1" transform="translate(11,38)"/>
<path d="M0 0 C0.99 0.33 1.98 0.66 3 1 C3 1.66 3 2.32 3 3 C3.66 3 4.32 3 5 3 C5 4.65 5 6.3 5 8 C4.34 8 3.68 8 3 8 C3 7.34 3 6.68 3 6 C2.34 6 1.68 6 1 6 C0.67 4.02 0.34 2.04 0 0 Z " fill="#8B84B0" transform="translate(15,37)"/>
<path d="M0 0 C2.31082041 4.45658222 4 7.90360271 4 13 C3.34 12.67 2.68 12.34 2 12 C2.33 11.34 2.66 10.68 3 10 C2.34 10 1.68 10 1 10 C1 8.68 1 7.36 1 6 C0.34 6 -0.32 6 -1 6 C-0.67 4.02 -0.34 2.04 0 0 Z " fill="#F3E8FA" transform="translate(36,34)"/>
<path d="M0 0 C0.103125 0.639375 0.20625 1.27875 0.3125 1.9375 C0.539375 2.618125 0.76625 3.29875 1 4 C1.99 4.33 2.98 4.66 4 5 C3.67 7.31 3.34 9.62 3 12 C0.97649676 8.96474514 0.67875982 7.80573798 0.375 4.3125 C0.30023438 3.50425781 0.22546875 2.69601563 0.1484375 1.86328125 C0.09945312 1.24839844 0.05046875 0.63351563 0 0 Z " fill="#F4D5FA" transform="translate(40,28)"/>
<path d="M0 0 C0.33 0.66 0.66 1.32 1 2 C1.99 2 2.98 2 4 2 C4 4.31 4 6.62 4 9 C2.68 9.33 1.36 9.66 0 10 C0.66 9.67 1.32 9.34 2 9 C1.65772428 6.02934491 1.65772428 6.02934491 1 3 C0.34 2.67 -0.32 2.34 -1 2 C-0.67 1.34 -0.34 0.68 0 0 Z " fill="#F4B4E2" transform="translate(30,22)"/>
<path d="M0 0 C0.99 0.33 1.98 0.66 3 1 C3 1.66 3 2.32 3 3 C0.04335481 4.4783226 -2.74229737 4.06032783 -6 4 C-6 3.34 -6 2.68 -6 2 C-4.35 2 -2.7 2 -1 2 C-0.67 1.34 -0.34 0.68 0 0 Z " fill="#C9C5D8" transform="translate(37,13)"/>
<path d="M0 0 C0.99 0 1.98 0 3 0 C3 1.32 3 2.64 3 4 C4.32 4.33 5.64 4.66 7 5 C4.69 5 2.38 5 0 5 C0 3.35 0 1.7 0 0 Z " fill="#F9ACF3" transform="translate(23,26)"/>
<path d="M0 0 C0.99 0 1.98 0 3 0 C3.33 1.65 3.66 3.3 4 5 C2.68 4.67 1.36 4.34 0 4 C0 2.68 0 1.36 0 0 Z " fill="#AFBFCA" transform="translate(57,33)"/>
<path d="M0 0 C-1.45255699 3.82946843 -3.42895561 5.12050295 -7 7 C-3.86206897 0 -3.86206897 0 0 0 Z " fill="#CCD2D6" transform="translate(33,4)"/>
<path d="" fill="#FAFAFA" transform="translate(0,0)"/>
<path d="" fill="#FAFAFA" transform="translate(0,0)"/>
</svg>
